<svg xmlns="http://www.w3.org/2000/svg" xmlns:xlink="http://www.w3.org/1999/xlink" width="270" height="24" viewBox="0 0 270 24"><defs><path id="lg66a" d="M694.9 36.9a1.5 1.5 0 0 0 1.16-1.36v-12.4c0-.5-.41-1.15-1.16-1.36v-.44c.37 0 1.97.07 2.38.07.48 0 2.18-.07 2.55-.07v.44c-.71.17-1.19.82-1.19 1.36v5.06h9.84v-5.06c0-.54-.4-1.19-1.16-1.36v-.44c.38 0 2.04.07 2.52.07.41 0 2.04-.07 2.42-.07v.44c-.72.17-1.2.82-1.2 1.36v12.4c0 .51.45 1.16 1.2 1.36v.44c-.38 0-2.01-.06-2.42-.06-.48 0-2.14.06-2.52.06v-.44a1.5 1.5 0 0 0 1.16-1.36v-5.98h-9.84v5.98c0 .55.45 1.16 1.2 1.36v.44c-.38 0-2.08-.06-2.56-.06-.4 0-2 .06-2.38.06v-.44"/><path id="lg66b" d="M719.37 31.37l2.86-6.35 2.68 6.35zm-5.21 5.54v.37h2.31c.34 0 1.47.04 1.98.04v-.41c-.78-.24-1.06-.71-.99-1.05.04-.17.24-.72.3-.89l1.03-2.28h6.67l1.02 2.28c.07.17.27.72.3.89.07.34-.03.81-.81 1.05v.4l2.52-.03 2.62.04v-.41c-1.06-.27-1.43-.88-1.8-1.73l-5.08-12.1c-.2-.51-.57-1.87-.57-1.87h-1.67s-.34 1.36-.58 1.87l-5.55 12.06c-.4.85-.78 1.53-1.7 1.77z"/><path id="lg66c" d="M736.9 22.46c.54-.1 1.43-.17 1.97-.17 2.66 0 4.16 1.46 4.16 3.64 0 1.53-.96 3.26-3.99 3.26-.74 0-1.63-.03-2.14-.1zm-3.88 14.44v.45c.51 0 2.14-.07 2.55-.07.48 0 2.18.07 2.7.07v-.45c-.93-.2-1.37-.88-1.37-1.39v-5.2c.51.07 1.09.1 1.74.1l4.7 5.44c1.39 1.6 2.48 1.77 4.83 1.43v-.38a8.92 8.92 0 0 1-2.25-2l-4.12-4.76c2.42-.6 4.05-2.14 4.05-4.18 0-3.4-3.13-4.72-6.26-4.72-.89 0-3.17.17-3.95.17-.48 0-2.1-.07-2.62-.07v.44c.92.17 1.3.85 1.3 1.36v12.37c0 .54-.45 1.22-1.3 1.4z"/><path id="lg66d" d="M749.5 23.07c-.34-.78-.62-1.08-1.4-1.29v-.44c.58 0 2.14.07 2.59.07.4 0 2-.07 2.62-.07v.44c-.55.1-1.13.41-1.13.89 0 .2.17.57.24.78l4.5 10.63 4.59-10.36c.2-.44.17-.95.14-1.09-.07-.4-.24-.71-.92-.85v-.44c.54 0 1.7.07 2.1.07.38 0 1.54-.07 2.12-.07v.44c-.85.17-1.2.65-1.53 1.4l-6.47 14.4h-1.36l-6.1-14.5"/><path id="lg66e" d="M769.98 31.37l2.86-6.35 2.69 6.35zm-5.21 5.54v.37h2.31c.34 0 1.47.04 1.98.04v-.41c-.78-.24-1.06-.71-.99-1.05.04-.17.24-.72.3-.89l1.03-2.28h6.67l1.02 2.28c.07.17.27.72.3.89.07.34-.03.81-.81 1.05v.4l2.52-.03 2.62.04v-.41c-1.06-.27-1.43-.88-1.8-1.73l-5.08-12.1c-.2-.51-.57-1.87-.57-1.87h-1.67s-.34 1.36-.58 1.87l-5.55 12.06c-.4.85-.78 1.53-1.7 1.77z"/><path id="lg66f" d="M787.51 22.46c.54-.1 1.43-.17 1.97-.17 2.66 0 4.16 1.46 4.16 3.64 0 1.53-.96 3.26-3.99 3.26-.74 0-1.63-.03-2.14-.1zm-3.88 14.44v.45c.51 0 2.14-.07 2.55-.07.48 0 2.18.07 2.7.07v-.45c-.93-.2-1.37-.88-1.37-1.39v-5.2c.51.07 1.09.1 1.74.1l4.7 5.44c1.39 1.6 2.48 1.77 4.83 1.43v-.38a8.92 8.92 0 0 1-2.25-2l-4.12-4.76c2.42-.6 4.05-2.14 4.05-4.18 0-3.4-3.13-4.72-6.26-4.72-.89 0-3.17.17-3.95.17-.48 0-2.1-.07-2.62-.07v.44c.92.17 1.3.85 1.3 1.36v12.37c0 .54-.45 1.22-1.3 1.4z"/><path id="lg66g" d="M804.66 22.46c.61-.1 1.77-.17 2.69-.17a7.08 7.08 0 0 1 7.18 7.2c0 4.02-2.82 6.77-7.32 6.77-.85 0-1.97-.07-2.55-.17zm-3.88 14.44v.45c.51 0 2.14-.07 2.62-.07.78 0 3.17.13 4.87.13 5.38 0 9.08-3.22 9.08-7.81 0-4.72-3.67-8.36-9.08-8.36-1.7 0-4.09.17-4.87.17-.48 0-2.1-.07-2.62-.07v.44c.88.17 1.3.85 1.3 1.36v12.34c0 .54-.38 1.25-1.3 1.42z"/><path id="lg66h" d="M826.17 36.9c.92-.17 1.3-.88 1.3-1.42V23.14c0-.64-.38-1.15-1.4-1.36v-.44c.37 0 2.25.07 2.72.07.41 0 2.32-.07 2.7-.07v.44c-1 .24-1.44.68-1.44 1.36v12.78H835c1.66 0 2.48-.58 3.16-1.94l.44.1-.44 3.33c-1.53-.13-2.45-.13-4.18-.13h-5.18c-.47 0-2.1.06-2.62.06v-.44"/><path id="lg66i" d="M841.65 36.9c1.02-.2 1.43-.71 1.43-1.36v-12.4c0-.64-.4-1.15-1.43-1.36v-.44c.37 0 2.31.07 2.8.07.4 0 2.3-.07 2.68-.07v.44c-.99.24-1.46.68-1.46 1.36v12.4c0 .68.47 1.12 1.46 1.36v.44l-2.69-.06c-.48 0-2.42.06-2.79.06v-.44"/><path id="lg66j" d="M854.82 29.53h1.97c2.08 0 3.88 1.26 3.88 3.33 0 2.1-1.5 3.33-3.94 3.33-.55 0-1.37-.03-1.91-.14zm0-1.22v-5.85c.51-.1.95-.17 1.5-.17 2.2 0 3.5 1.3 3.5 3.13 0 2.2-1.43 2.89-3.67 2.89zm-3.88 8.6v.44c.51 0 2.14-.07 2.62-.07.78 0 2.83.13 3.71.13 3.1 0 6.23-1.05 6.23-4.48 0-1.84-1.53-3.43-3.68-4.08 1.57-.54 2.83-1.73 2.83-3.53 0-2.75-2.32-4.08-5.41-4.08-.89 0-2.9.17-3.68.17-.48 0-2.11-.07-2.62-.07v.44c.88.17 1.3.85 1.3 1.36v12.34c0 .54-.38 1.25-1.3 1.42z"/><path id="lg66k" d="M870.72 22.46c.54-.1 1.43-.17 1.97-.17 2.66 0 4.16 1.46 4.16 3.64 0 1.53-.96 3.26-3.99 3.26-.74 0-1.63-.03-2.14-.1zm-3.88 14.44v.45c.51 0 2.14-.07 2.55-.07.48 0 2.18.07 2.7.07v-.45c-.93-.2-1.37-.88-1.37-1.39v-5.2c.51.07 1.09.1 1.74.1l4.7 5.44c1.39 1.6 2.48 1.77 4.83 1.43v-.38a8.92 8.92 0 0 1-2.25-2l-4.12-4.76c2.42-.6 4.05-2.14 4.05-4.18 0-3.4-3.13-4.72-6.26-4.72-.89 0-3.17.17-3.95.17-.48 0-2.1-.07-2.62-.07v.44c.92.17 1.3.85 1.3 1.36v12.37c0 .54-.45 1.22-1.3 1.4z"/><path id="lg66l" d="M889.22 31.37l2.86-6.35 2.69 6.35zM884 36.91v.37h2.31c.34 0 1.47.04 1.98.04v-.41c-.78-.24-1.06-.71-.99-1.05.04-.17.24-.72.3-.89l1.03-2.28h6.67l1.02 2.28c.07.17.27.72.3.89.08.34-.03.81-.81 1.05v.4l2.52-.03 2.62.04v-.41c-1.06-.27-1.43-.88-1.8-1.73l-5.08-12.1c-.2-.51-.57-1.87-.57-1.87h-1.67s-.34 1.36-.58 1.87l-5.55 12.06c-.4.85-.78 1.53-1.7 1.77z"/><path id="lg66m" d="M907.76 22.46c.54-.1 1.43-.17 1.97-.17 2.66 0 4.16 1.46 4.16 3.64 0 1.53-.96 3.26-3.99 3.26-.75 0-1.63-.03-2.14-.1zm-3.88 14.44v.45c.51 0 2.14-.07 2.55-.07.48 0 2.18.07 2.7.07v-.45c-.93-.2-1.37-.88-1.37-1.39v-5.2c.51.07 1.09.1 1.74.1l4.7 5.44c1.39 1.6 2.48 1.77 4.83 1.43v-.38a8.9 8.9 0 0 1-2.25-2l-4.12-4.76c2.42-.6 4.05-2.14 4.05-4.18 0-3.4-3.13-4.72-6.26-4.72-.89 0-3.17.17-3.95.17-.48 0-2.11-.07-2.62-.07v.44c.92.17 1.3.85 1.3 1.36v12.37c0 .54-.45 1.22-1.3 1.4z"/><path id="lg66n" d="M924.02 36.9c.92-.17 1.36-.85 1.36-1.4V30l-4.49-6.25a5.76 5.76 0 0 0-2.11-1.97v-.44c.58 0 2.08.07 2.52.07.4 0 1.94-.07 2.55-.07v.44c-.37.07-.54.51-.54.65 0 .17.03.5.27.85l3.64 5.13 3.64-5.06c.34-.48.41-.79.41-1.02 0-.1-.17-.48-.68-.55v-.44c.51 0 1.74.07 2.08.07.34 0 1.56-.07 2.07-.07v.44a6.89 6.89 0 0 0-2.72 2.45l-4.05 5.64v5.64c0 .54.4 1.22 1.33 1.4v.43c-.51 0-2.22-.06-2.7-.06-.4 0-2 .06-2.58.06v-.44"/><path id="lg66o" d="M665.16 18.31h19.41v7.32c0 3.35-1.25 10.46-9.63 15.75 0 0-9.08-3.79-9.78-15.75V18.3"/><path id="lg66p" d="M684.43 18.44v7.18c0 2.88-.93 10.15-9.5 15.6-.81-.37-8.99-4.39-9.64-15.6v-7.18zm-9.48 23.08l.06-.03c8.75-5.53 9.7-12.94 9.7-15.87v-7.45h-19.69v7.46c.7 11.91 9.77 15.83 9.86 15.87z"/><path id="lg66q" d="M680.03 28.01s-.17.55-.94-.01l-2.64-.06s-.35.1-.4-.26c0 0 .07-.72.03-.78 0 0 .02-.2-.33-.2 0 0-.53.06-.55-.41 0 0-.09-.5.65-.5 0 0 .23.12.25-.18 0 0-.03-2.04-.02-2.2 0 0 .07-.19-.3-.22 0 0-.51.11-.58-.23 0 0-.03-.52.32-.55 0 0 .42.03.5-.08 0 0 .1.06.08-.31l.02-.65s.04-.17.31-.15c0 0 .49.03.55-.02l.14-.2s.25-.02.3.04c0 0 .38.25 1.81.16 0 0 .22 0 .27.06 0 0 .26.2.42-.01 0 0 .24-.05.95-.03 0 0 .77.2 1.3-.24l.17.03s.22.36.38.25c0 0 .47-.04.55.05 0 0 .16.23.08.85 0 0-.1.26.36.26 0 0 .52-.09.46.4 0 0 .14.55-.72.47 0 0-.11.16-.1.26 0 0-.01 1.8-.03 2 0 0-.02.28.36.27 0 0 .5-.04.52.42 0 0 .06.6-.66.49 0 0-.22.03-.25.17l-.03.78s.01.4-.43.3c-.06 0-2.45.05-2.66-.01 0 0-.1-.02-.14.04"/><path id="lg66r" d="M674.92 30.68s.11-.05.14-.13c0 0 .33-.03.38-.07l1.04.07s1.02.08 1.46-.23c0 0 .16 0 .27.04 0 0 .22.05.28.15l.6-.02s.35.11.32.33v.28s-.07.57.09.6h.46s.37.17.33.4c0 0 .01.3-.32.37 0 0-.33.1-.44.08 0 0-.1.14-.12.31l-.05 2.06s-.03.22.3.19c0 0 .48-.05.63.22 0 0 .12.45-.13.53l-.19.1-.4.06s-.18.01-.2.31v.55s.02.38-.28.38l-.44.03s-.1.1-.33.03c0 0-2.67.05-2.77.02l-.31.06s-.35.31-.63.08l-.22-.17s-.16.03-.22.01c-.06-.01-2.96.03-2.96.03s-.61.07-.66-.14c0 0-.08-.8-.05-.9 0 0 0-.23-.14-.24 0 0-.61-.04-.63-.1 0 0-.33-.23-.23-.47 0 0 .1-.31.44-.34 0 0 .5.07.5-.07 0 0 .03-.1.03-.25 0 0 .03-1.87.02-2 0 0 .05-.23-.16-.23 0 0-.22.06-.36-.03 0 0-.38.01-.46-.28 0 0-.06-.2.03-.35 0 0 .18-.35.68-.23 0 0 .28.07.32-.13l-.02-.75s-.06-.2.33-.32c0 0 .5.14.66-.1 0 0 .17-.35.31-.12 0 0 .3.29 1.12.25 0 0 1.42-.1 1.45-.04 0 0 .34.04.44.15l.1.02"/><path id="lg66s" d="M670.62 28.05s-.17.55-.94-.01l-2.64-.06s-.35.1-.4-.25c0 0 .07-.73.03-.79 0 0 .02-.2-.33-.2 0 0-.53.06-.55-.41 0 0-.1-.5.65-.49 0 0 .23.11.25-.19 0 0-.03-2.04-.02-2.2 0 0 .07-.18-.3-.22 0 0-.51.11-.58-.23 0 0-.03-.52.32-.55 0 0 .42.03.5-.08 0 0 .1.06.08-.31l.02-.65s.04-.17.31-.15c0 0 .49.03.55-.02l.14-.2s.25-.02.3.04c0 0 .38.25 1.81.16 0 0 .22 0 .27.06 0 0 .26.2.42-.01 0 0 .24-.05.95-.03 0 0 .77.2 1.3-.24l.18.03s.21.36.37.25c0 0 .47-.04.55.05 0 0 .16.24.08.85 0 0-.1.26.36.26 0 0 .52-.09.46.4 0 0 .14.55-.72.47 0 0-.12.16-.1.27l-.03 1.99s-.02.28.36.27c0 0 .5-.04.52.42 0 0 .06.6-.66.49 0 0-.22.03-.25.17l-.03.79s.01.39-.43.3c-.06 0-2.45.04-2.66-.02 0 0-.1-.02-.14.04"/><path id="lg66t" d="M676.42 27.87s-.12.04-.21-.01c-.05-.04-.08-.1-.1-.17.05-.44.06-.7.04-.8 0-.02 0-.09-.06-.15-.07-.07-.18-.11-.34-.11 0 0-.24.03-.37-.1-.07-.05-.1-.13-.11-.25 0 0-.02-.15.07-.26.1-.1.26-.15.5-.15.03.01.13.04.21-.01.07-.04.11-.12.12-.25-.01-.56-.03-2.06-.02-2.17a.2.2 0 0 0-.03-.17c-.05-.08-.16-.13-.33-.14h-.02c-.07.01-.3.04-.41-.04a.2.2 0 0 1-.09-.13s-.02-.46.24-.48c.1 0 .4.02.53-.08a.1.1 0 0 0 .04 0c.07-.05.1-.16.09-.38l.01-.63c.01-.03.07-.12.24-.1.24.01.53.02.6-.03l.01-.02c.01-.01.09-.1.13-.18l.2.02.02.02c.02.01.42.26 1.85.17.1 0 .2.02.21.04h.01c.01.01.16.13.33.1a.29.29 0 0 0 .18-.1c.07 0 .33-.04.89-.03.03.01.79.2 1.34-.23l.11.02c.05.07.18.25.31.28.05 0 .1 0 .13-.02.22-.02.44 0 .47.02 0 0 .15.23.08.79a.25.25 0 0 0 .03.21c.06.1.2.14.4.14 0 0 .21-.03.32.07.05.05.07.13.06.25v.03s.04.14-.06.25c-.1.11-.3.16-.59.13h-.04l-.02.03c-.01.02-.13.18-.1.3 0 .02-.02 1.8-.04 2 0 0 0 .13.1.23.07.08.18.11.33.1 0 0 .22 0 .35.11.06.06.1.15.1.26 0 0 .02.2-.11.32-.1.1-.26.13-.47.1l-.01-.01h-.01c-.01 0-.27.04-.31.24l-.03.79s0 .13-.08.2c-.06.04-.15.05-.28.03h-.1c-2.14.03-2.49 0-2.55-.02-.01 0-.16-.02-.21.09 0 0-.05.14-.18.18-.16.05-.39-.02-.66-.22l-.02-.02-2.66-.06h-.01zm3.26.45c.05 0 .1 0 .15-.02a.44.44 0 0 0 .26-.25l.06-.02c.05.02.2.06 2.58.02h.09c.16.04.29.01.38-.06.13-.11.12-.3.12-.3l.03-.77c.02-.08.14-.11.19-.12.25.03.45 0 .57-.13a.56.56 0 0 0 .16-.43.47.47 0 0 0-.15-.35c-.18-.15-.43-.14-.44-.14-.11 0-.2-.02-.24-.06-.06-.06-.05-.13-.05-.13l.03-2.01c-.01-.05.03-.13.06-.19.32.02.54-.04.67-.18.12-.14.1-.31.09-.36.01-.16-.02-.28-.1-.36-.16-.15-.43-.1-.43-.1-.14 0-.24-.03-.28-.08-.03-.05-.02-.1-.01-.11.08-.63-.09-.89-.1-.9-.09-.11-.45-.09-.6-.07h-.04a.05.05 0 0 1-.04.02c-.08-.02-.19-.16-.24-.24l-.02-.03-.23-.04-.02.02c-.5.41-1.24.22-1.26.22-.71-.02-.95.03-.96.03h-.03l-.01.03a.16.16 0 0 1-.11.07c-.1.01-.2-.05-.22-.07-.07-.07-.24-.08-.32-.08-1.29.09-1.7-.11-1.76-.14-.07-.07-.24-.07-.34-.06h-.04l-.02.04-.12.18h-.5c-.33-.02-.39.2-.4.22l-.01.65-.01.23-.02-.01-.04.05c-.03.04-.23.07-.45.05-.33.03-.39.42-.37.63.01.1.06.18.14.23.18.12.45.07.5.06.16.02.21.06.23.09v.06c-.01.16.02 2.12.02 2.2 0 .07-.02.12-.05.13-.04.03-.1 0-.1 0h-.03c-.29-.01-.5.06-.61.2a.46.46 0 0 0-.1.35c0 .15.05.27.15.35.18.16.46.13.46.13.11 0 .2.02.23.06.04.03.04.07.04.07v.03c.01.05 0 .42-.04.77.02.12.07.22.16.27.12.08.27.05.31.04l2.61.06c.24.17.45.25.62.25z"/><path id="lg66u" d="M677.06 21.54l.03.4-.05 4.53s.05.35-.25.52c0 0-.08.03-.09-.19l.03-4.7s.03-.59.33-.56"/><path id="lg66v" d="M677.05 21.94l-.04 4.54c0 .01.04.33-.24.48-.01-.01-.03-.04-.04-.15l.03-4.71s.02-.36.17-.48a.16.16 0 0 1 .1-.04l.02.36zm-.27 5.09h.02c.32-.19.27-.55.27-.55l.05-4.54-.03-.4v-.03h-.03a.23.23 0 0 0-.18.06c-.17.14-.19.5-.19.53l-.03 4.7c0 .12.03.19.08.22h.04z"/><path id="lg66w" d="M676.53 27.04s.03-4.43.02-4.5l.01.06s-.04-.77.16-1.09c0 0-.06-.26-.42.06l-.02.65s0 .36-.33.34c0 0-.38-.01-.55.16 0 0-.1.35.27.28 0 0 .56 0 .6.24l-.04 2.37s.13.4-.3.4c0 0-.55-.04-.53.3 0 0 .11.27.57.18 0 0 .33.06.31.38v.6s-.03.23.28.24h2.46s.12.02.12-.14c0 0-.01-.12-.2-.12l-2.04-.03s-.34.1-.37-.38"/><path id="lg66x" d="M676.97 27.07s-.07.22.17.17h1.62l.44.1s.46-.11 0-.36c0 0-1.45.01-1.57-.02l-.36-.1s-.16-.06-.3.21"/><path id="lg66y" d="M677.13 27.21c-.04.01-.1.02-.12-.01-.03-.03-.02-.09-.02-.11.13-.23.25-.19.26-.19l.36.1c.13.03 1.44.02 1.58.02.16.09.18.15.17.17 0 .06-.12.1-.17.12l-.44-.1zm2.07.17c.02-.01.21-.06.23-.18.01-.08-.06-.16-.22-.25h-.02c-.4 0-1.46 0-1.56-.02l-.36-.1s-.18-.06-.34.23c0 0-.03.12.03.18.04.04.1.06.17.04h1.62z"/><path id="lg66z" d="M679.65 27.29s-.3 0-.28.39c0 0 .03.3.35.3 0 0 .28-.05.25-.36 0 0-.18-.4-.32-.33"/><path id="lg66A" d="M679.87 27.13s.15-.15.24-.15c0 0 1.57.14 1.84-.05 0 0 .24-.05.3 0 0 0 .23.19.23.3 0 0-.01.14-.3.06l-1.87.02s-.48.1-.44-.18"/><path id="lg66B" d="M680.11 27c.06.01 1.57.14 1.86-.04.1-.02.23-.03.26 0 .09.06.22.2.22.26l-.02.04c-.03.01-.1.03-.23 0h-1.89c-.08.03-.3.05-.37-.02-.03-.02-.04-.05-.03-.1.05-.05.15-.13.2-.13zm.01.36a.9.9 0 0 0 .2-.02l1.86-.02c.13.03.23.03.29 0a.12.12 0 0 0 .05-.1c0-.12-.22-.3-.25-.32-.07-.06-.28-.02-.32 0h-.02c-.2.15-1.38.08-1.82.04-.1 0-.24.15-.26.17v.01c-.02.07 0 .13.04.17.06.05.15.07.23.07z"/><path id="lg66C" d="M680.13 27.6s0-.12.22-.12l2.2-.02s.2.11.2-.27c0 0 .09-1.7.1-3.6 0-.55.02-1.14 0-1.69 0 0-.05-.23-.11-.28 0 0 0-.25.27-.16 0 0 .23.02.17.38l.02.55s-.05.23.37.17c0 0 .43.06.44.22 0 0 .13.31-.37.28h-.36s-.16.1-.11.29l-.05 2.27s-.03.4.34.38c0 0 .4-.02.48.11 0 0 .26.4-.32.36 0 0-.36-.01-.44.05 0 0-.06.08-.11.81 0 0 .03.44-.3.4 0 0-2.18.03-2.39-.02 0 0-.22.06-.25-.1"/><path id="lg66D" d="M677.3 21.4l-.05 5.04s-.02.24.38.28c0 0 .45.05.56 0 0 0 .3-.01 1.07.02 0 0 .2.19.2-.05 0 0 .13-4.08.07-4.93 0 0-.02-.36-.28-.37 0 0-1.2.09-1.3 0l-.48-.13s-.19.02-.17.14"/><path id="lg66E" d="M679.78 21.66s-.05 2.37-.04 2.45l-.03 1.99-.06.7s.1.13.17.04c0 0 .5-.13.82-.08 0 0 1 .1 1.21-.06 0 0 .16.07.2-.18 0 0 .07-4.4.04-4.47 0 0 .06-.63.03-.7 0 0-.02-.13-.28 0 0 0 .03.12-1.47.07 0 0-.56-.02-.6.24"/><path id="lg66F" d="M682.28 21.59l-.02 4.96s.13.44.33.4c0 0 .03-.1.05-.26l.06-4.73s-.16-.75-.42-.37"/><path id="lg66G" d="M682.31 21.6c.05-.06.1-.09.13-.08.1.02.2.29.23.45l-.06 4.72-.04.22c-.14 0-.24-.25-.27-.36zm.25 5.38h.06v-.02s.04-.1.06-.27l.06-4.73c-.01-.05-.1-.47-.29-.5-.06-.02-.13.02-.2.11l-.02 4.98v.01c0 .02.12.42.33.42z"/><path id="lg66H" d="M680.35 23.07c-.05-.12.27-.14.27-.14l.16.03c.1-.01.22.03.22.03.1.18-.08.27-.08.27l-.07.2v1.67c.04.08.16.22.16.22 0 .14-.17.1-.17.1l-.46.02c-.14-.01-.1-.17-.1-.17.17-.08.21-.36.21-.36v-1.55l-.14-.32"/><path id="lg66I" d="M678.28 23.18s.32-.08.38.02c.07.1.46.44.07.82 0 0-.18.33-.48.09l-.01-.82zm-.06 1.35s.1-.1.14-.04l.57.88s.25.17.32 0c0 0 .01-.07-.07-.13l-.45-.72.03-.25s.49-.2.44-.65c0 0 .1-.45-.54-.66H678s-.26-.04-.3.03c0 0-.03.15.08.16 0 0 .13.14.13.22l-.02.66.02.91s-.02.2-.14.28c0 0-.1.16 0 .2l.5.06s.16-.1.06-.22l-.14-.24z"/><path id="lg66J" d="M675.06 30.55s.33-.03.38-.07l1.04.07s1.02.08 1.46-.23c0 0 .16 0 .27.04 0 0 .22.05.28.15l.6-.02s.35.11.32.33v.28s-.07.57.09.6h.46s.37.17.33.4c0 0 .01.3-.32.37 0 0-.33.1-.44.08 0 0-.1.14-.12.31l-.05 2.06s-.03.22.3.19c0 0 .48-.05.63.22 0 0 .12.45-.13.53l-.19.1-.4.06s-.18.01-.2.31v.55s.02.38-.28.38l-.44.03s-.1.1-.33.03c0 0-2.67.05-2.77.02l-.31.06s-.35.31-.63.08l-.22-.17s-.16.03-.22.01c-.06-.01-2.96.03-2.96.03s-.61.07-.66-.14c0 0-.08-.8-.05-.9 0 0 0-.23-.14-.24 0 0-.61-.04-.63-.1 0 0-.33-.23-.23-.47 0 0 .1-.31.44-.34 0 0 .5.07.5-.07 0 0 .03-.1.03-.25 0 0 .03-1.87.02-2 0 0 .05-.23-.16-.23 0 0-.22.06-.36-.03 0 0-.38.01-.46-.28 0 0-.06-.2.03-.35 0 0 .18-.35.68-.23 0 0 .28.07.32-.13l-.02-.75s-.06-.2.33-.32c0 0 .5.14.66-.1 0 0 .17-.35.31-.12 0 0 .3.29 1.12.25 0 0 1.42-.1 1.45-.04 0 0 .34.04.44.15l.1.02s.1-.05.13-.13z"/><path id="lg66K" d="M674.37 37.24a110.43 110.43 0 0 0-3.17.05c-.26.02-.56 0-.58-.09a6.7 6.7 0 0 1-.05-.86v-.03c0-.1-.04-.3-.2-.31-.23-.02-.5-.04-.58-.07l-.02-.02s-.28-.2-.21-.39c0 0 .1-.27.36-.3.1.02.43.06.54-.04a.12.12 0 0 0 .05-.08c0-.03.03-.12.03-.26 0-.19.03-1.8.01-2 .01-.03.02-.14-.04-.22a.22.22 0 0 0-.18-.08h-.02s-.2.06-.3-.02l-.02-.01h-.03s-.32 0-.38-.24c0 0-.06-.16.02-.3 0 0 .16-.29.6-.2.02.01.19.06.3-.02a.22.22 0 0 0 .1-.16l-.02-.77c0-.01-.03-.14.27-.23.1.03.55.12.72-.15.03-.06.1-.15.14-.15.02 0 .05.03.05.05h.02c0 .02.32.31 1.17.28.6-.05 1.25-.08 1.39-.06l.04.01c.13.02.34.07.4.14l.01.01.14.03.02-.01c.01 0 .1-.05.16-.12.13-.02.27-.04.35-.08l1.01.08c.05 0 1.03.07 1.5-.24.04 0 .14.01.22.05.08.02.21.06.25.11l.02.03.62-.01c.05.02.28.1.26.26v.27c-.02.2-.05.63.16.68h.44c.1.04.3.18.28.3v.02a.3.3 0 0 1-.27.31c-.12.04-.34.09-.41.08h-.04l-.02.02c0 .01-.13.16-.14.36l-.05 2.05s-.01.1.06.18c.07.07.17.1.31.08.13 0 .47 0 .56.17 0 0 .1.4-.1.46l-.17.09-.4.06s-.23.02-.24.38v.55s0 .17-.08.26c-.04.03-.08.05-.14.05l-.45.03h-.02l-.01.02s-.1.06-.27.01h-.02c-1.05.02-2.65.04-2.75.02h-.02l-.35.07h-.01c0 .01-.3.28-.54.08l-.25-.19zm.47.4a.7.7 0 0 0 .43-.18l.28-.06a70.16 70.16 0 0 0 3.12-.05l.42-.03c.1 0 .17-.03.24-.09.12-.13.11-.34.11-.35v-.55c.01-.23.12-.24.13-.25l.41-.06.2-.1c.31-.1.18-.6.17-.63-.17-.3-.68-.25-.7-.25-.1 0-.17 0-.2-.04-.03-.03-.03-.07-.02-.08l.04-2.05a.6.6 0 0 1 .1-.25c.13 0 .37-.07.41-.09.3-.05.38-.3.37-.43.05-.26-.32-.44-.37-.46l-.01-.01h-.46c-.04-.02-.07-.25-.04-.53v-.27c.04-.28-.34-.4-.36-.4l-.01-.01-.58.02a.64.64 0 0 0-.28-.14.88.88 0 0 0-.3-.05h-.02l-.02.01c-.41.3-1.4.23-1.42.22l-1.03-.07h-.03l-.02.01c-.04.02-.2.05-.34.06H675l-.01.05c-.01.03-.06.06-.09.08l-.05-.01c-.12-.1-.39-.15-.46-.16a6.47 6.47 0 0 0-1.46.04c-.72.03-1.02-.19-1.07-.22-.05-.1-.12-.11-.16-.1-.14 0-.24.18-.26.21-.1.17-.46.12-.58.09l-.02-.01h-.02c-.18.06-.3.13-.35.23a.24.24 0 0 0-.03.16l.02.74c-.01.04-.03.05-.04.06-.05.03-.16.02-.2 0-.54-.11-.75.27-.75.27-.1.19-.04.4-.03.4.07.27.34.34.5.34.15.08.34.04.39.03.04 0 .06.02.06.02.03.04.02.1.02.13v.02c.01.1 0 1.24-.02 1.99 0 .14-.03.23-.03.24-.03.03-.23.04-.44 0-.37.04-.5.38-.5.4-.1.24.18.48.25.53.03.04.14.1.67.12.07 0 .08.13.08.18-.02.13.03.72.05.92.06.25.62.2.73.19a164 164 0 0 1 3.16-.04l.2.15c.08.07.18.1.27.1z"/><path id="lg66L" d="M675.33 36.85s.19-.1.32-.06c.12.03 1.96-.02 1.96-.02s.8.06.93-.05l.19-.06s.08-.1.08-.22l.01-.55.05-.15s-.02-.16 0-4.36c0 0 .06-.32-.14-.53 0 0 0-.12.06-.1h.03s.29-.07.33.04c0 0 .13.37.02.6 0 0-.03.45.2.45 0 0 .1.1.29.05 0 0 .4.05.4.17 0 0 0 .28-.28.24l-.38.03s-.25.04-.22.34c.04.3-.01 2.44-.01 2.44s0 .25.4.23c0 0 .48-.01.48.13 0 0 .13.31-.22.33 0 0-.66-.02-.61.17 0 0-.05.44-.08.52 0 0 .06.36-.02.42 0 0-.05.2-.47.18 0 0-2.7-.02-3.13.01 0 0-.25-.03-.19-.25"/><path id="lg66M" d="M674.85 36.55s.26.05.26.3.02.39-.14.42c-.16.03-.33-.01-.38-.22-.05-.2.04-.45.26-.5"/><path id="lg66N" d="M675.16 36.42s.29-.19.4-.15c0 0 1.43.09 1.87.01.44-.08.17-.01.17-.01s.38 0 .49-.15c0 0 .1-.03.17.08l.24.26s.01.15-.25.14l-2.65.01s-.48.08-.44-.19"/><path id="lg66O" d="M675.55 36.3c.06 0 1.44.1 1.88.02l.16-.03v.01c.02 0 .38 0 .51-.14.02 0 .09 0 .13.07l.23.24-.03.05c-.03.04-.1.05-.19.05l-2.65.01c-.08.01-.3.03-.37-.05a.1.1 0 0 1-.03-.08c.1-.07.28-.17.36-.15zm-.1.36l.15-.01 2.64-.02c.11.01.2-.01.24-.06.05-.05.05-.1.04-.11v-.02l-.24-.25a.19.19 0 0 0-.2-.1h-.02v.02c-.06.07-.23.1-.35.12-.01-.03-.04-.02-.3.02-.42.08-1.84-.01-1.85-.01-.12-.04-.37.12-.42.16h-.01v.02c-.02.06 0 .12.04.16.06.06.18.08.28.08z"/><path id="lg66P" d="M671.43 30.85s.1 0 .1.19l-.04 4.74s.05.32-.22.52c0 0-.14.17-.14-.1l.06-4.83s.02-.36.24-.52"/><path id="lg66Q" d="M671.47 30.9c.01.01.03.05.02.13l-.03 4.75s.04.3-.21.5c-.02.02-.05.04-.06.03 0 0-.02 0-.02-.11l.06-4.84s.02-.33.21-.48c0 0 .02 0 .03.02zm-.28 5.48c.05 0 .1-.05.1-.06a.6.6 0 0 0 .24-.55l.03-4.74c0-.08 0-.14-.04-.18a.12.12 0 0 0-.09-.04h-.02c-.23.17-.25.54-.25.55l-.06 4.84c0 .07 0 .16.07.18h.02z"/><path id="lg66R" d="M671.18 30.88s-.19.34-.17.42l-.02 1.05v.75c.02.08-.01 2.06-.01 2.06s-.02.38 0 .5v.85s-.03.38.25.28c0 0 2.77-.06 2.94-.01 0 0 .25.05.16.17 0 0 0 .11-.17.08 0 0-1.31.13-2.49.08 0 0-.79.05-.83-.05 0 0-.13-.01-.13-.47 0 0 0-.42-.03-.5 0 0 .03-.22-.36-.27 0 0-.55.1-.57-.23 0 0 .08-.24.61-.2 0 0 .4.05.32-.26l.05-2.32s.04-.41-.22-.43c0 0-.25-.01-.33.02 0 0-.46 0-.43-.27 0 0 .16-.28.61-.22 0 0 .35.06.37-.33 0 0-.02-.8.17-.83 0 0 .4.01.28.13"/><path id="lg66S" d="M671.65 36.08s.23.24.59.22l2.13.03s.24.02.23.14c0 0-.04.2-.32.13l-2.58-.03-.28.01s-.19-.03.1-.39l.13-.11"/><path id="lg66T" d="M671.42 36.55s-.02 0-.03-.03c0-.02-.01-.1.16-.3l.1-.1c.07.06.28.22.58.21l2.14.03c.03 0 .14.02.18.07v.03s0 .05-.05.08c-.05.04-.12.04-.22.02l-2.59-.03zm2.96.1c.06 0 .12-.02.16-.05.07-.05.08-.12.08-.13 0-.03 0-.06-.02-.09-.06-.07-.21-.08-.23-.09l-2.14-.03h-.03c-.32 0-.52-.2-.53-.2l-.02-.03-.15.14c-.15.17-.2.3-.17.38a.1.1 0 0 0 .08.06l.29-.01 2.57.03.11.01z"/><path id="lg66U" d="M678.26 35.87s.19.36.28.41c0 0 .18.2.13-.15l.03-4.53s-.05-.15 0-.4l-.19-.35s-.2-.16-.2.1l-.03 4.81-.02.11"/><path id="lg66V" d="M678.3 35.77l.04-4.82c0-.06 0-.1.03-.1.03-.02.08 0 .11.03l.18.32a.95.95 0 0 0 0 .41l-.03 4.52c.02.16 0 .18 0 .18l-.07-.05c-.07-.03-.2-.25-.27-.39zm.33.6h.02c.05-.02.07-.1.05-.24l.03-4.52v-.01s-.05-.16 0-.4l-.2-.36v-.01c-.01-.01-.11-.09-.2-.05-.04.02-.06.08-.06.17l-.03 4.81-.02.12v.01c.02.04.2.36.3.42.01.02.06.07.1.07z"/><path id="lg66W" d="M674.77 33.72s.01.37-.03.74c-.03.2.06 1.11-.02 1.58 0 0-.02.16-.35.02 0 0-2 .05-2.07-.02 0 0-.55.02-.6-.27 0 0 .08-2.15.03-2.23 0 0-.03-1.17 0-1.28 0 0 .05-1.09.02-1.21 0 0 .01-.25-.03-.38 0 0 0-.16.26-.06 0 0 .1.17.62.1 0 0 .37.06.74 0 0 0 .8-.05 1 0 0 0 .32-.05.41.3l-.01.96.09.32.11-.08.05-.24.01-1.03s.07-.2.32-.22c0 0 .4-.05.45-.02.07.03.92.08 1.15.03.24-.04.29.16 1-.2 0 0 .18.02.18.14 0 0-.06 1.34 0 1.59 0 0 0 2.45-.05 2.62l.04.79s.03.34-.52.37c0 0 .34.05-1.83-.01 0 0-.34-.02-.72.15 0 0-.08-.01-.08-.22 0 0 .06-.73 0-1.46l-.03-.8-.14.02"/><path id="lg66X" d="M673.35 32.6s.05 1.17 0 1.33l-.01.25s.06.17.16.23c0 0 .07.22-.12.2 0 0-.39-.02-.48 0 0 0-.22 0 0-.3 0 0 .08-.1.06-.38 0 0 0-1.32.03-1.4 0 0 .03-.17-.08-.22l-.19.01-.23.22s-.05.24-.16-.01v-.13l.14-.37.1-.02s.14.1.26.13h.74l.27-.13s.11.02.08.16c0 0 .05.36-.16.4 0 0-.12-.04-.19-.21 0 0-.2-.11-.22.25"/><path id="lg66Y" d="M676.82 32.19s-.6-.05-.6.6c0 0-.07.43.59.72 0 0 .49.23.46.53 0 0-.07.53-.59.27 0 0-.25-.13-.23-.27 0 0-.08-.17-.18-.14 0 0-.1.03-.06.55 0 0 0 .2.24 0l.12.03s.43.35.79-.08c0 0 .4-.36.11-.8 0 0-.2-.31-.57-.47 0 0-.34-.16-.42-.43 0 0 .1-.47.53-.22 0 0 .16.2.26.22 0 0 .12 0 .09-.28l-.03-.23s-.03-.18-.25 0c0 0-.2.08-.26 0"/><path id="lg66Z" d="M674.83 32.78l.08.09s.17.47.17.55c0 .08-.01.16-.1.16l-.35-.02-.1-.16.13-.52zm.08-.93c-.1-.08-.14.1-.19.2 0 0-.5 2.04-.58 2.15 0 0-.05.2-.22.22 0 0-.1.11.05.15 0 0 .3.09.4-.04 0 0 .1.07 0-.33 0 0 .07-.47.26-.47 0 0 .1.07.12.13.02.06.2 0 .2 0s.1-.14.17-.11c0 0 .14.2.15.33 0 0 .07.31-.01.4 0 0-.08.05.1.09 0 0 .37.06.48.01 0 0 .27-.08 0-.17 0 0-.14-.13-.22-.28 0 0-.27-1.21-.58-2.04 0 0-.02-.16-.13-.24z"/><path id="lg66aa" d="M667.01 27.9s-.12.04-.2-.01c-.06-.04-.1-.1-.1-.17.04-.44.05-.7.03-.8 0-.02 0-.09-.06-.15-.07-.07-.18-.11-.34-.11 0 0-.24.03-.38-.1-.06-.05-.1-.13-.1-.25 0 0-.02-.14.07-.26.09-.1.25-.16.5-.15.03.01.12.04.2 0 .08-.05.12-.13.13-.26-.01-.7-.03-2.07-.02-2.17a.2.2 0 0 0-.03-.17c-.05-.08-.16-.13-.33-.14h-.02s-.27.05-.41-.04a.2.2 0 0 1-.09-.13s-.02-.46.24-.48c.1 0 .4.02.53-.08a.1.1 0 0 0 .04 0c.07-.05.1-.16.09-.38l.01-.63c.01-.03.06-.12.24-.1.24.01.53.02.6-.03l.01-.02c.01-.01.09-.1.13-.18.1 0 .19.01.2.03l.02.01c.02.01.41.26 1.85.17.09 0 .2.02.21.04h.01c.01.01.17.13.33.1a.29.29 0 0 0 .18-.1 6 6 0 0 1 .89-.03c.03.01.78.2 1.34-.23l.11.03c.05.07.18.24.31.27.05 0 .1 0 .13-.02.22-.02.44 0 .47.02 0 0 .15.23.07.79a.25.25 0 0 0 .04.21c.06.1.2.14.4.14 0 0 .21-.03.32.07.05.05.07.14.06.25v.03s.04.14-.06.25c-.1.11-.3.16-.59.13H674l-.02.03c-.01.02-.13.18-.1.3 0 .02-.02 1.8-.04 2 0 0 0 .13.1.23.07.08.18.11.33.1 0 0 .22 0 .35.11.06.06.1.15.1.26 0 0 .02.2-.11.32-.1.1-.26.13-.47.1h-.02c-.01 0-.27.03-.31.23l-.03.79s0 .13-.08.2c-.06.04-.15.06-.28.03h-.1c-2.14.03-2.49 0-2.55-.02-.01 0-.16-.02-.21.09 0 0-.05.14-.19.18-.15.05-.38-.02-.65-.22l-.02-.02-2.68-.06zm3.26.45c.05 0 .1 0 .15-.02a.43.43 0 0 0 .26-.25c.01-.01.04-.02.06-.01.05.01.2.05 2.58.01h.09c.16.04.28.02.38-.06.13-.11.12-.3.12-.3l.03-.77c.02-.08.14-.11.19-.12.25.03.45 0 .57-.13a.56.56 0 0 0 .16-.43.47.47 0 0 0-.15-.35.66.66 0 0 0-.44-.14c-.11 0-.2-.02-.24-.06-.06-.06-.05-.13-.05-.13l.03-2.01c-.01-.05.03-.13.06-.19.32.02.54-.04.67-.18.12-.14.1-.31.09-.36.01-.16-.02-.28-.1-.36-.16-.15-.43-.1-.43-.1-.14 0-.24-.03-.28-.08-.03-.05-.02-.1-.01-.11.08-.63-.09-.89-.1-.9-.09-.11-.45-.09-.6-.07h-.04a.05.05 0 0 1-.04.02c-.08-.02-.19-.16-.24-.24l-.01-.03-.24-.04-.02.02c-.5.41-1.24.22-1.26.22-.71-.02-.95.03-.96.03h-.03l-.02.03a.16.16 0 0 1-.1.07c-.1.02-.2-.05-.22-.07-.07-.07-.24-.08-.31-.08-1.3.09-1.72-.11-1.77-.14-.07-.07-.24-.07-.34-.06h-.04l-.02.04-.12.18h-.5c-.33-.02-.39.2-.4.22l-.01.65-.01.23h-.02l-.04.04c-.03.04-.23.07-.45.05-.33.03-.39.42-.37.63.01.1.06.18.14.23.18.12.45.08.5.07.16.01.2.05.23.08v.06c-.01.16.02 2.12.02 2.2 0 .05-.01.11-.05.13-.04.03-.1 0-.1 0h-.03c-.3-.01-.5.06-.61.2a.46.46 0 0 0-.1.35c0 .15.05.27.15.35.18.16.46.13.46.13.11 0 .2.02.23.06.03.03.03.07.03.07v.03c.02.05 0 .42-.03.77.02.12.07.22.16.27.12.08.27.05.31.04l2.61.06c.24.17.45.25.62.25z"/><path id="lg66ab" d="M667.65 21.58l.03.4-.04 4.53s.04.35-.26.52c0 0-.07.03-.09-.19l.03-4.7s.03-.59.33-.56"/><path id="lg66ac" d="M667.65 21.98l-.04 4.54c0 .01.04.33-.24.48 0 0-.03-.04-.04-.15l.03-4.71s.02-.36.17-.48a.16.16 0 0 1 .1-.04l.02.36zm-.27 5.09h.03c.31-.19.26-.55.26-.55l.05-4.54-.03-.4v-.03h-.03a.23.23 0 0 0-.18.06c-.17.14-.19.5-.19.52l-.03 4.72c0 .11.03.18.08.2.01.02.02.02.04.02z"/><path id="lg66ad" d="M667.13 27.08s.04-4.43.02-4.5l.02.06s-.05-.77.15-1.09c0 0-.06-.27-.42.06l-.02.65s0 .36-.33.34c0 0-.38-.01-.55.16 0 0-.1.35.27.28 0 0 .57 0 .6.24l-.03 2.37s.12.4-.32.4c0 0-.53-.04-.52.3 0 0 .11.28.57.18 0 0 .33.06.31.38v.6s-.03.23.29.25h2.45s.13.01.13-.15c0 0-.02-.12-.2-.12l-2.05-.03s-.33.1-.37-.38"/><path id="lg66ae" d="M667.56 27.11s-.06.22.17.17h1.62l.44.1s.46-.11 0-.36c0 0-1.45.01-1.57-.02l-.36-.1s-.16-.06-.3.21"/><path id="lg66af" d="M667.73 27.24c-.04.01-.1.02-.12-.01-.03-.03-.02-.09-.02-.11.13-.23.25-.19.26-.19l.36.1c.13.03 1.4.02 1.58.01.16.1.18.15.17.18 0 .06-.12.1-.17.12l-.44-.1zm2.07.17c.03-.01.21-.06.23-.18.01-.08-.06-.16-.22-.25h-.01c-.4 0-1.47 0-1.57-.02l-.36-.1s-.19-.06-.34.23c0 .01-.03.12.03.18.04.05.1.06.17.04h1.62z"/><path id="lg66ag" d="M670.24 27.33s-.3 0-.28.39c0 0 .03.3.35.3 0 0 .28-.05.25-.36 0 0-.17-.4-.32-.33"/><path id="lg66ah" d="M670.46 27.17s.14-.15.24-.15c0 0 1.57.14 1.84-.05 0 0 .24-.05.3 0 0 0 .23.19.23.3 0 0-.01.14-.3.06l-1.87.02s-.48.1-.44-.18"/><path id="lg66ai" d="M670.7 27.05c.06 0 1.57.13 1.86-.05.1-.02.23-.03.26 0 .09.06.22.2.22.26l-.02.04c-.03.02-.1.03-.23 0h-1.89c-.08.03-.3.05-.37-.02-.03-.02-.04-.05-.03-.1.05-.05.15-.13.2-.13zm.01.35l.2-.02 1.87-.02c.12.03.22.03.27 0a.12.12 0 0 0 .06-.1c0-.12-.22-.3-.25-.32-.07-.06-.28-.02-.32 0h-.02c-.2.15-1.38.08-1.82.04-.1 0-.24.15-.26.17v.01c-.02.07 0 .13.04.17.06.05.15.07.23.07z"/><path id="lg66aj" d="M670.72 27.64s0-.12.22-.12l2.2-.02s.2.1.2-.27c0 0 .09-1.7.1-3.6 0-.55.02-1.14 0-1.69 0 0-.05-.23-.1-.28 0 0 0-.25.26-.16 0 0 .23.02.17.38l.02.55s-.05.23.37.17c0 0 .43.06.44.22 0 0 .13.31-.37.28h-.36s-.16.1-.11.29l-.05 2.27s-.03.4.34.38c0 0 .4-.02.48.1 0 0 .26.4-.32.37 0 0-.36-.02-.44.05 0 0-.06.08-.1.81 0 0 .02.44-.3.4 0 0-2.2.03-2.4-.02 0 0-.22.06-.25-.1"/><path id="lg66ak" d="M667.89 21.44l-.05 5.04s-.02.24.38.29c0 0 .45.04.56 0 0 0 .3-.02 1.07.01 0 0 .2.19.2-.05 0 0 .13-4.08.07-4.93 0 0-.02-.36-.28-.37 0 0-1.2.09-1.3 0l-.48-.13s-.19.02-.17.14"/><path id="lg66al" d="M672.88 21.63l-.02 4.96s.13.44.33.4c0 0 .03-.1.05-.26l.06-4.73s-.16-.75-.42-.37"/><path id="lg66am" d="M672.9 21.64c.05-.06.1-.09.13-.08.1.02.2.29.23.45l-.06 4.72-.04.22c-.14 0-.24-.25-.27-.36zm.25 5.38a.2.2 0 0 0 .04 0h.02V27s.04-.1.06-.27l.06-4.73c-.01-.05-.1-.47-.29-.5-.06-.02-.13.02-.2.11l-.02 4.98v.01c0 .02.12.42.33.42z"/><path id="lg66an" d="M670.38 21.67s-.05 2.37-.04 2.45l-.03 2-.06.68s.1.14.17.05c0 0 .5-.13.82-.08 0 0 1 .1 1.21-.06 0 0 .16.08.2-.18 0 0 .07-4.4.04-4.47 0 0 .06-.63.03-.7 0 0-.02-.13-.28 0 0 0 .03.12-1.47.07 0 0-.56-.01-.6.24"/><path id="lg66ao" d="M669.89 23.13l-.14.3s-.35 1.52-.54 1.83c0 0-.03.32-.3.06 0 0-.6-1.93-.64-1.99l-.2-.14s-.13-.17.09-.19l.58.02s.19.15-.06.33c0 0 .03.25.36 1.2 0 0 .1.37.2.1l.32-1.12-.1-.33s-.09-.15.05-.17c0 0 .33-.03.38.1"/><path id="lg66ap" d="M670.8 23.38l-.01 1.66-.05.13s-.16.2-.05.22c0 0-.14.1 1.01.1 0 0 .44.09.33-.48 0 0-.05-.2-.2.1 0 0-.05.25-.62.17 0 0-.12-.11-.12-.24v-.69s-.02-.17.25-.15c0 0 .3.18.34.1 0 0 .11-.25 0-.4 0 0-.14-.02-.15.04 0 0-.1.2-.36.08 0 0-.13-.25-.05-.45 0 0-.03-.4.23-.37 0 0 .32.07.35.16 0 0 .08.2.16-.03l-.08-.27s-.05-.1-.13-.07c0 0-.53.07-.6.01l-.42.05s-.06.15.13.23c0 0 .04.04.04.1"/></defs><g><g transform="translate(-665 -18)"><g><g><use fill="#fff" xlink:href="#lg66a"/></g><g><use fill="#fff" xlink:href="#lg66b"/></g><g><use fill="#fff" xlink:href="#lg66c"/></g><g><use fill="#fff" xlink:href="#lg66d"/></g><g><use fill="#fff" xlink:href="#lg66e"/></g><g><use fill="#fff" xlink:href="#lg66f"/></g><g><use fill="#fff" xlink:href="#lg66g"/></g><g><use fill="#fff" xlink:href="#lg66h"/></g><g><use fill="#fff" xlink:href="#lg66i"/></g><g><use fill="#fff" xlink:href="#lg66j"/></g><g><use fill="#fff" xlink:href="#lg66k"/></g><g><use fill="#fff" xlink:href="#lg66l"/></g><g><use fill="#fff" xlink:href="#lg66m"/></g><g><use fill="#fff" xlink:href="#lg66n"/></g></g><g><g><use fill="#a51c30" xlink:href="#lg66o"/></g><g><use fill="#1e1e1e" xlink:href="#lg66p"/></g><g><use fill="#fffffe" xlink:href="#lg66q"/></g><g><use fill="#fffffe" xlink:href="#lg66r"/></g><g><use fill="#fffffe" xlink:href="#lg66s"/></g><g><use fill="#1e1e1e" xlink:href="#lg66q"/></g><g><use fill="#1e1e1e" xlink:href="#lg66t"/></g><g><use fill="#fffffe" xlink:href="#lg66u"/></g><g><use fill="#a9a5c0" xlink:href="#lg66v"/></g><g><use fill="#fffffe" xlink:href="#lg66w"/></g><g><use fill="#fffffe" xlink:href="#lg66x"/></g><g><use fill="#a9a5c0" xlink:href="#lg66y"/></g><g><use fill="#fffffe" xlink:href="#lg66z"/></g><g><use fill="#fffffe" xlink:href="#lg66A"/></g><g><use fill="#a9a5c0" xlink:href="#lg66B"/></g><g><use fill="#fffffe" xlink:href="#lg66C"/></g><g><use fill="#fffffe" xlink:href="#lg66D"/></g><g><use fill="#fffffe" xlink:href="#lg66E"/></g><g><use fill="#fffffe" xlink:href="#lg66F"/></g><g><use fill="#a9a5c0" xlink:href="#lg66G"/></g><g><use fill="#1e1e1e" xlink:href="#lg66H"/></g><g><use fill="#1e1e1e" xlink:href="#lg66I"/></g><g><use fill="#1e1e1e" xlink:href="#lg66J"/></g><g><use fill="#1e1e1e" xlink:href="#lg66K"/></g><g><use fill="#fffffe" xlink:href="#lg66L"/></g><g><use fill="#fffffe" xlink:href="#lg66M"/></g><g><use fill="#fffffe" xlink:href="#lg66N"/></g><g><use fill="#a9a5c0" xlink:href="#lg66O"/></g><g><use fill="#fffffe" xlink:href="#lg66P"/></g><g><use fill="#a9a5c0" xlink:href="#lg66Q"/></g><g><use fill="#fffffe" xlink:href="#lg66R"/></g><g><use fill="#fffffe" xlink:href="#lg66S"/></g><g><use fill="#a9a5c0" xlink:href="#lg66T"/></g><g><use fill="#fffffe" xlink:href="#lg66U"/></g><g><use fill="#1e1e1e" xlink:href="#lg66V"/></g><g><use fill="#fffffe" xlink:href="#lg66W"/></g><g><use fill="#1e1e1e" xlink:href="#lg66X"/></g><g><use fill="#1e1e1e" xlink:href="#lg66Y"/></g><g><use fill="#1e1e1e" xlink:href="#lg66Z"/></g><g><use fill="#1e1e1e" xlink:href="#lg66s"/></g><g><use fill="#1e1e1e" xlink:href="#lg66aa"/></g><g><use fill="#fffffe" xlink:href="#lg66ab"/></g><g><use fill="#a9a5c0" xlink:href="#lg66ac"/></g><g><use fill="#fffffe" xlink:href="#lg66ad"/></g><g><use fill="#fffffe" xlink:href="#lg66ae"/></g><g><use fill="#a9a5c0" xlink:href="#lg66af"/></g><g><use fill="#fffffe" xlink:href="#lg66ag"/></g><g><use fill="#fffffe" xlink:href="#lg66ah"/></g><g><use fill="#a9a5c0" xlink:href="#lg66ai"/></g><g><use fill="#fffffe" xlink:href="#lg66aj"/></g><g><use fill="#fffffe" xlink:href="#lg66ak"/></g><g><use fill="#fffffe" xlink:href="#lg66al"/></g><g><use fill="#a9a5c0" xlink:href="#lg66am"/></g><g><use fill="#fffffe" xlink:href="#lg66an"/></g><g><use fill="#1e1e1e" xlink:href="#lg66ao"/></g><g><use fill="#1e1e1e" xlink:href="#lg66ap"/></g></g></g></g></svg>
